# xmcd CD database file
#
# Track frame offsets:
#	150
#	17302
#	36467
#	54075
#	70285
#	85902
#	104262
#	122945
#	138810
#	157595
#	173905
#	192907
#
# Disc length: 2750 seconds
#
# Revision: 0
# Processed by: cddbd v1.5.2PL0 Copyright (c) Steve Scherf et al.
# Submitted via: CDex 1.51
#
DISCID=910abc0c
DTITLE=California Cowboys - Cantina Nights
DYEAR=2000
DGENRE=Country
TTITLE0=That A Way Jose
TTITLE1=Loved By You
TTITLE2=Weatherman
TTITLE3=Thinkin ' Bout ' You
TTITLE4=Ole ' Fashioned Girl
TTITLE5=Workin ' For The Weekend
TTITLE6=Timberline
TTITLE7=Too Much Woman
TTITLE8=Twenty Four Hours
TTITLE9=Pullin' My Chain
TTITLE10=Everything To Me
TTITLE11=Tell Me Goodbye
EXTD=YEAR: 2000
EXTT0=
EXTT1=
EXTT2=
EXTT3=
EXTT4=
EXTT5=
EXTT6=
EXTT7=
EXTT8=
EXTT9=
EXTT10=
EXTT11=
PLAYORDER=
